<?xml version="1.0" standalone="no"?>
<!DOCTYPE svg PUBLIC "-//W3C//DTD SVG 20010904//EN"
 "http://www.w3.org/TR/2001/REC-SVG-20010904/DTD/svg10.dtd">
<svg version="1.0" xmlns="http://www.w3.org/2000/svg"
 width="100.000000pt" height="100.000000pt" viewBox="0 0 100.000000 100.000000"
 preserveAspectRatio="xMidYMid meet">
<metadata>
Created by potrace 1.11, written by Peter Selinger 2001-2013
</metadata>
<g transform="translate(0.000000,100.000000) scale(0.100000,-0.100000)"
fill="#000000" stroke="none">
<path d="M416 930 c-80 -25 -113 -102 -101 -233 4 -45 9 -99 10 -121 3 -38 13
-107 21 -149 2 -12 5 -93 5 -179 2 -181 -3 -173 101 -162 35 3 79 7 98 9 77 5
94 21 68 68 -6 12 -13 29 -14 37 -3 20 -8 41 -32 125 -36 129 -23 173 67 220
76 40 109 81 91 115 -11 21 -35 27 -45 10 -6 -10 -35 -3 -35 9 0 4 17 15 38
24 71 31 83 116 23 165 -62 51 -223 85 -295 62z"/>
</g>
</svg>
